<?xml version="1.0" encoding="UTF-8" standalone="no"?>
<!DOCTYPE svg PUBLIC "-//W3C//DTD SVG 1.1//EN"
 "http://www.w3.org/Graphics/SVG/1.1/DTD/svg11.dtd">
<!-- Generated by graphviz version 2.40.1 (20161225.0304)
 -->
<!-- Title: %3 Pages: 1 -->
<svg width="429pt" height="155pt"
 viewBox="0.00 0.00 429.14 154.63" xmlns="http://www.w3.org/2000/svg" xmlns:xlink="http://www.w3.org/1999/xlink">
<g id="graph0" class="graph" transform="scale(1 1) rotate(0) translate(4 150.6329)">
<title>%3</title>
<polygon fill="#ffffff" stroke="transparent" points="-4,4 -4,-150.6329 425.1437,-150.6329 425.1437,4 -4,4"/>
<g id="clust1" class="cluster">
<title>cluster_1</title>
<path fill="none" stroke="#000000" d="M17,-10.6329C17,-10.6329 90.876,-10.6329 90.876,-10.6329 96.876,-10.6329 102.876,-16.6329 102.876,-22.6329 102.876,-22.6329 102.876,-126.6329 102.876,-126.6329 102.876,-132.6329 96.876,-138.6329 90.876,-138.6329 90.876,-138.6329 17,-138.6329 17,-138.6329 11,-138.6329 5,-132.6329 5,-126.6329 5,-126.6329 5,-22.6329 5,-22.6329 5,-16.6329 11,-10.6329 17,-10.6329"/>
<text text-anchor="middle" x="53.938" y="-123.4329" font-family="Times,serif" font-size="14.00" fill="#000000">Connection #1</text>
</g>
<g id="clust2" class="cluster">
<title>cluster_2</title>
<path fill="none" stroke="#000000" d="M330.2678,-10.6329C330.2678,-10.6329 404.1437,-10.6329 404.1437,-10.6329 410.1437,-10.6329 416.1437,-16.6329 416.1437,-22.6329 416.1437,-22.6329 416.1437,-72.6329 416.1437,-72.6329 416.1437,-78.6329 410.1437,-84.6329 404.1437,-84.6329 404.1437,-84.6329 330.2678,-84.6329 330.2678,-84.6329 324.2678,-84.6329 318.2678,-78.6329 318.2678,-72.6329 318.2678,-72.6329 318.2678,-22.6329 318.2678,-22.6329 318.2678,-16.6329 324.2678,-10.6329 330.2678,-10.6329"/>
<text text-anchor="middle" x="367.2057" y="-69.4329" font-family="Times,serif" font-size="14.00" fill="#000000">Connection #2</text>
</g>
<!-- publisher -->
<g id="node1" class="node">
<title>publisher</title>
<path fill="none" stroke="#000000" d="M76.3277,-108.6329C76.3277,-108.6329 31.5483,-108.6329 31.5483,-108.6329 25.5483,-108.6329 19.5483,-102.6329 19.5483,-96.6329 19.5483,-96.6329 19.5483,-84.6329 19.5483,-84.6329 19.5483,-78.6329 25.5483,-72.6329 31.5483,-72.6329 31.5483,-72.6329 76.3277,-72.6329 76.3277,-72.6329 82.3277,-72.6329 88.3277,-78.6329 88.3277,-84.6329 88.3277,-84.6329 88.3277,-96.6329 88.3277,-96.6329 88.3277,-102.6329 82.3277,-108.6329 76.3277,-108.6329"/>
<text text-anchor="middle" x="53.938" y="-86.4329" font-family="Times,serif" font-size="14.00" fill="#000000">Publisher</text>
</g>
<!-- subject -->
<g id="node4" class="node">
<title>subject</title>
<ellipse fill="none" stroke="#000000" cx="230.297" cy="-36.6329" rx="36.7663" ry="36.7663"/>
<text text-anchor="middle" x="230.297" y="-32.4329" font-family="Times,serif" font-size="14.00" fill="#000000">Subject</text>
</g>
<!-- publisher&#45;&gt;subject -->
<g id="edge1" class="edge">
<title>publisher&#45;&gt;subject</title>
<path fill="none" stroke="#000000" d="M88.3903,-80.7497C112.8119,-73.6694 146.3209,-63.8034 175.6641,-54.6329 178.957,-53.6038 182.3561,-52.5246 185.7727,-51.4276"/>
<polygon fill="#000000" stroke="#000000" points="186.9407,-54.7284 195.3745,-48.3158 184.7825,-48.0694 186.9407,-54.7284"/>
<text text-anchor="middle" x="144.27" y="-75.4329" font-family="Times,serif" font-size="14.00" fill="#000000">msg</text>
</g>
<!-- subscriber_1 -->
<g id="node2" class="node">
<title>subscriber_1</title>
<path fill="none" stroke="#000000" d="M79.8141,-54.6329C79.8141,-54.6329 28.0619,-54.6329 28.0619,-54.6329 22.0619,-54.6329 16.0619,-48.6329 16.0619,-42.6329 16.0619,-42.6329 16.0619,-30.6329 16.0619,-30.6329 16.0619,-24.6329 22.0619,-18.6329 28.0619,-18.6329 28.0619,-18.6329 79.8141,-18.6329 79.8141,-18.6329 85.8141,-18.6329 91.8141,-24.6329 91.8141,-30.6329 91.8141,-30.6329 91.8141,-42.6329 91.8141,-42.6329 91.8141,-48.6329 85.8141,-54.6329 79.8141,-54.6329"/>
<text text-anchor="middle" x="53.938" y="-32.4329" font-family="Times,serif" font-size="14.00" fill="#000000">Subscriber</text>
</g>
<!-- subscriber_2 -->
<g id="node3" class="node">
<title>subscriber_2</title>
<path fill="none" stroke="#000000" d="M393.0818,-54.6329C393.0818,-54.6329 341.3297,-54.6329 341.3297,-54.6329 335.3297,-54.6329 329.3297,-48.6329 329.3297,-42.6329 329.3297,-42.6329 329.3297,-30.6329 329.3297,-30.6329 329.3297,-24.6329 335.3297,-18.6329 341.3297,-18.6329 341.3297,-18.6329 393.0818,-18.6329 393.0818,-18.6329 399.0818,-18.6329 405.0818,-24.6329 405.0818,-30.6329 405.0818,-30.6329 405.0818,-42.6329 405.0818,-42.6329 405.0818,-48.6329 399.0818,-54.6329 393.0818,-54.6329"/>
<text text-anchor="middle" x="367.2057" y="-32.4329" font-family="Times,serif" font-size="14.00" fill="#000000">Subscriber</text>
</g>
<!-- subject&#45;&gt;subscriber_1 -->
<g id="edge2" class="edge">
<title>subject&#45;&gt;subscriber_1</title>
<path fill="none" stroke="#000000" stroke-dasharray="5,2" d="M193.613,-36.6329C167.1863,-36.6329 131.2603,-36.6329 102.4619,-36.6329"/>
<polygon fill="#000000" stroke="#000000" points="102.2053,-33.133 92.2053,-36.6329 102.2052,-40.133 102.2053,-33.133"/>
<text text-anchor="middle" x="144.27" y="-39.4329" font-family="Times,serif" font-size="14.00" fill="#000000">echo&#39;d msg</text>
</g>
<!-- subject&#45;&gt;subscriber_2 -->
<g id="edge3" class="edge">
<title>subject&#45;&gt;subscriber_2</title>
<path fill="none" stroke="#000000" d="M266.986,-36.6329C282.8596,-36.6329 301.6613,-36.6329 318.6668,-36.6329"/>
<polygon fill="#000000" stroke="#000000" points="318.9809,-40.133 328.9809,-36.6329 318.9808,-33.133 318.9809,-40.133"/>
<text text-anchor="middle" x="296.5988" y="-39.4329" font-family="Times,serif" font-size="14.00" fill="#000000">msg</text>
</g>
</g>
</svg>
