<?xml version="1.0" encoding="UTF-8" standalone="no"?>
<!DOCTYPE svg PUBLIC "-//W3C//DTD SVG 1.1//EN"
 "http://www.w3.org/Graphics/SVG/1.1/DTD/svg11.dtd">
<!-- Generated by graphviz version 2.40.1 (20161225.0304)
 -->
<!-- Title: nats_pub_sub Pages: 1 -->
<svg width="405pt" height="81pt"
 viewBox="0.00 0.00 404.56 81.27" xmlns="http://www.w3.org/2000/svg" xmlns:xlink="http://www.w3.org/1999/xlink">
<g id="graph0" class="graph" transform="scale(1 1) rotate(0) translate(4 77.2658)">
<title>nats_pub_sub</title>
<polygon fill="#ffffff" stroke="transparent" points="-4,4 -4,-77.2658 400.5627,-77.2658 400.5627,4 -4,4"/>
<!-- publisher -->
<g id="node1" class="node">
<title>publisher</title>
<path fill="none" stroke="#000000" d="M56.8346,-54.6329C56.8346,-54.6329 12.0551,-54.6329 12.0551,-54.6329 6.0551,-54.6329 .0551,-48.6329 .0551,-42.6329 .0551,-42.6329 .0551,-30.6329 .0551,-30.6329 .0551,-24.6329 6.0551,-18.6329 12.0551,-18.6329 12.0551,-18.6329 56.8346,-18.6329 56.8346,-18.6329 62.8346,-18.6329 68.8346,-24.6329 68.8346,-30.6329 68.8346,-30.6329 68.8346,-42.6329 68.8346,-42.6329 68.8346,-48.6329 62.8346,-54.6329 56.8346,-54.6329"/>
<text text-anchor="middle" x="34.4448" y="-32.4329" font-family="Times,serif" font-size="14.00" fill="#000000">Publisher</text>
</g>
<!-- subject -->
<g id="node2" class="node">
<title>subject</title>
<ellipse fill="none" stroke="#000000" cx="194.7882" cy="-36.6329" rx="36.7663" ry="36.7663"/>
<text text-anchor="middle" x="194.7882" y="-32.4329" font-family="Times,serif" font-size="14.00" fill="#000000">Subject</text>
</g>
<!-- publisher&#45;&gt;subject -->
<g id="edge1" class="edge">
<title>publisher&#45;&gt;subject</title>
<path fill="none" stroke="#000000" d="M68.8499,-47.9423C74.8047,-49.4755 80.9813,-50.8046 86.8896,-51.6329 110.334,-54.9197 116.6938,-54.7952 140.1553,-51.6329 143.372,-51.1993 146.6673,-50.6283 149.9674,-49.9624"/>
<polygon fill="#000000" stroke="#000000" points="150.8343,-53.3547 159.8083,-47.723 149.281,-46.5292 150.8343,-53.3547"/>
<text text-anchor="middle" x="113.5225" y="-56.4329" font-family="Times,serif" font-size="14.00" fill="#000000">updates.1</text>
</g>
<!-- publisher&#45;&gt;subject -->
<g id="edge2" class="edge">
<title>publisher&#45;&gt;subject</title>
<path fill="none" stroke="#000000" d="M68.8497,-34.383C74.8603,-34.0705 81.0553,-33.7996 86.8896,-33.6329 110.5536,-32.9566 116.4906,-32.9837 140.1553,-33.6329 142.6894,-33.7024 145.2889,-33.7901 147.9126,-33.8913"/>
<polygon fill="#000000" stroke="#000000" points="147.9206,-37.3949 158.0652,-34.3393 148.2293,-30.4017 147.9206,-37.3949"/>
<text text-anchor="middle" x="113.5225" y="-36.4329" font-family="Times,serif" font-size="14.00" fill="#000000">updates.2</text>
</g>
<!-- publisher&#45;&gt;subject -->
<g id="edge3" class="edge">
<title>publisher&#45;&gt;subject</title>
<path fill="none" stroke="#000000" d="M69.0978,-19.8534C74.9167,-17.6923 80.9851,-15.8212 86.8896,-14.6329 110.0979,-9.9622 116.914,-10.1291 140.1553,-14.6329 144.0529,-15.3882 148.0251,-16.4205 151.9594,-17.6284"/>
<polygon fill="#000000" stroke="#000000" points="151.0028,-21.0003 161.5974,-20.9347 153.2743,-14.3791 151.0028,-21.0003"/>
<text text-anchor="middle" x="113.5225" y="-17.4329" font-family="Times,serif" font-size="14.00" fill="#000000">updates.3</text>
</g>
<!-- sub -->
<g id="node3" class="node">
<title>sub</title>
<path fill="none" stroke="#000000" d="M384.5008,-54.6329C384.5008,-54.6329 332.7486,-54.6329 332.7486,-54.6329 326.7486,-54.6329 320.7486,-48.6329 320.7486,-42.6329 320.7486,-42.6329 320.7486,-30.6329 320.7486,-30.6329 320.7486,-24.6329 326.7486,-18.6329 332.7486,-18.6329 332.7486,-18.6329 384.5008,-18.6329 384.5008,-18.6329 390.5008,-18.6329 396.5008,-24.6329 396.5008,-30.6329 396.5008,-30.6329 396.5008,-42.6329 396.5008,-42.6329 396.5008,-48.6329 390.5008,-54.6329 384.5008,-54.6329"/>
<text text-anchor="middle" x="358.6247" y="-32.4329" font-family="Times,serif" font-size="14.00" fill="#000000">Subscriber</text>
</g>
<!-- subject&#45;&gt;sub -->
<g id="edge4" class="edge">
<title>subject&#45;&gt;sub</title>
<path fill="none" stroke="#000000" d="M231.5563,-36.6329C254.8568,-36.6329 285.2447,-36.6329 310.4609,-36.6329"/>
<polygon fill="#000000" stroke="#000000" points="310.557,-40.133 320.557,-36.6329 310.557,-33.133 310.557,-40.133"/>
<text text-anchor="middle" x="276.0539" y="-39.4329" font-family="Times,serif" font-size="14.00" fill="#000000">updates.*</text>
</g>
</g>
</svg>
