<?xml version="1.0" encoding="UTF-8" standalone="no"?><!DOCTYPE svg PUBLIC "-//W3C//DTD SVG 1.1//EN" "http://www.w3.org/Graphics/SVG/1.1/DTD/svg11.dtd"><!-- Generated by graphviz version 2.40.1 (20161225.0304)
 --><!-- Title: G Pages: 1 --><svg xmlns="http://www.w3.org/2000/svg" xmlns:xlink="http://www.w3.org/1999/xlink" width="333pt" height="80pt" viewBox="0.00 0.00 332.54 80.00">
<g id="graph0" class="graph" transform="scale(1 1) rotate(0) translate(4 76)">
<title>G</title>
<polygon fill="#ffffff" stroke="transparent" points="-4,4 -4,-76 328.5428,-76 328.5428,4 -4,4"/>
<!-- client -->
<g id="node1" class="node">
<title>client</title>
<path fill="none" stroke="#000000" d="M78.4075,-54C78.4075,-54 11.8639,-54 11.8639,-54 5.8639,-54 -.1361,-48 -.1361,-42 -.1361,-42 -.1361,-30 -.1361,-30 -.1361,-24 5.8639,-18 11.8639,-18 11.8639,-18 78.4075,-18 78.4075,-18 84.4075,-18 90.4075,-24 90.4075,-30 90.4075,-30 90.4075,-42 90.4075,-42 90.4075,-48 84.4075,-54 78.4075,-54"/>
<text text-anchor="middle" x="45.1357" y="-31.8" font-family="Times,serif" font-size="14.00" fill="#000000">NATS Client</text>
</g>
<!-- natsserver -->
<g id="node2" class="node">
<title>natsserver</title>
<ellipse fill="none" stroke="#000000" cx="162.2714" cy="-36" rx="36" ry="36"/>
<text text-anchor="middle" x="162.2714" y="-31.8" font-family="Times,serif" font-size="14.00" fill="#000000">nats-server</text>
</g>
<!-- client&#45;&gt;natsserver -->
<g id="edge1" class="edge">
<title>client-&gt;natsserver</title>
<path fill="none" stroke="#000000" d="M90.4234,-36C102.2691,-36 114.8799,-36 126.176,-36"/>
</g>
<!-- client2 -->
<g id="node3" class="node">
<title>client2</title>
<path fill="none" stroke="#000000" d="M312.6789,-54C312.6789,-54 246.1353,-54 246.1353,-54 240.1353,-54 234.1353,-48 234.1353,-42 234.1353,-42 234.1353,-30 234.1353,-30 234.1353,-24 240.1353,-18 246.1353,-18 246.1353,-18 312.6789,-18 312.6789,-18 318.6789,-18 324.6789,-24 324.6789,-30 324.6789,-30 324.6789,-42 324.6789,-42 324.6789,-48 318.6789,-54 312.6789,-54"/>
<text text-anchor="middle" x="279.4071" y="-31.8" font-family="Times,serif" font-size="14.00" fill="#000000">NATS Client</text>
</g>
<!-- natsserver&#45;&gt;client2 -->
<g id="edge2" class="edge">
<title>natsserver-&gt;client2</title>
<path fill="none" stroke="#000000" d="M198.3718,-36C209.6649,-36 222.2717,-36 234.1141,-36"/>
</g>
</g>
</svg>