<?xml version="1.0" encoding="UTF-8" standalone="no"?>
<!DOCTYPE svg PUBLIC "-//W3C//DTD SVG 1.1//EN"
 "http://www.w3.org/Graphics/SVG/1.1/DTD/svg11.dtd">
<!-- Generated by graphviz version 2.40.1 (20161225.0304)
 -->
<!-- Title: g Pages: 1 -->
<svg width="424pt" height="98pt"
 viewBox="0.00 0.00 424.34 98.00" xmlns="http://www.w3.org/2000/svg" xmlns:xlink="http://www.w3.org/1999/xlink">
<g id="graph0" class="graph" transform="scale(1 1) rotate(0) translate(4 94)">
<title>g</title>
<polygon fill="#ffffff" stroke="transparent" points="-4,4 -4,-94 420.3379,-94 420.3379,4 -4,4"/>
<!-- publisher -->
<g id="node1" class="node">
<title>publisher</title>
<path fill="none" stroke="#000000" d="M100.7467,-63C100.7467,-63 12.0843,-63 12.0843,-63 6.0843,-63 .0843,-57 .0843,-51 .0843,-51 .0843,-39 .0843,-39 .0843,-33 6.0843,-27 12.0843,-27 12.0843,-27 100.7467,-27 100.7467,-27 106.7467,-27 112.7467,-33 112.7467,-39 112.7467,-39 112.7467,-51 112.7467,-51 112.7467,-57 106.7467,-63 100.7467,-63"/>
<text text-anchor="middle" x="56.4155" y="-40.8" font-family="Times,serif" font-size="14.00" fill="#000000">PUB time.us.east</text>
</g>
<!-- subject -->
<g id="node2" class="node">
<title>subject</title>
<ellipse fill="none" stroke="#000000" cx="208.1689" cy="-45" rx="36" ry="36"/>
<text text-anchor="middle" x="208.1689" y="-40.8" font-family="Times,serif" font-size="14.00" fill="#000000">nats&#45;server</text>
</g>
<!-- publisher&#45;&gt;subject -->
<g id="edge1" class="edge">
<title>publisher&#45;&gt;subject</title>
<path fill="none" stroke="#000000" d="M112.9229,-45C128.9445,-45 146.2009,-45 161.5658,-45"/>
<polygon fill="#000000" stroke="#000000" points="161.8625,-48.5001 171.8624,-45 161.8624,-41.5001 161.8625,-48.5001"/>
<text text-anchor="middle" x="142.5" y="-47.8" font-family="Times,serif" font-size="14.00" fill="#000000">msg</text>
</g>
<!-- sub1 -->
<g id="node3" class="node">
<title>sub1</title>
<path fill="none" stroke="#000000" d="M401.8059,-90C401.8059,-90 318.0389,-90 318.0389,-90 312.0389,-90 306.0389,-84 306.0389,-78 306.0389,-78 306.0389,-66 306.0389,-66 306.0389,-60 312.0389,-54 318.0389,-54 318.0389,-54 401.8059,-54 401.8059,-54 407.8059,-54 413.8059,-60 413.8059,-66 413.8059,-66 413.8059,-78 413.8059,-78 413.8059,-84 407.8059,-90 401.8059,-90"/>
<text text-anchor="middle" x="359.9224" y="-67.8" font-family="Times,serif" font-size="14.00" fill="#000000">SUB time.*.east</text>
</g>
<!-- subject&#45;&gt;sub1 -->
<g id="edge2" class="edge">
<title>subject&#45;&gt;sub1</title>
<path fill="none" stroke="#000000" d="M243.7484,-51.3303C259.4187,-54.1184 278.3195,-57.4812 296.2807,-60.6769"/>
<polygon fill="#000000" stroke="#000000" points="295.6776,-64.1244 306.1361,-62.4303 296.9039,-57.2327 295.6776,-64.1244"/>
<text text-anchor="middle" x="273.8379" y="-60.8" font-family="Times,serif" font-size="14.00" fill="#000000">msg</text>
</g>
<!-- sub2 -->
<g id="node4" class="node">
<title>sub2</title>
<path fill="none" stroke="#000000" d="M404.2535,-36C404.2535,-36 315.5912,-36 315.5912,-36 309.5912,-36 303.5912,-30 303.5912,-24 303.5912,-24 303.5912,-12 303.5912,-12 303.5912,-6 309.5912,0 315.5912,0 315.5912,0 404.2535,0 404.2535,0 410.2535,0 416.2535,-6 416.2535,-12 416.2535,-12 416.2535,-24 416.2535,-24 416.2535,-30 410.2535,-36 404.2535,-36"/>
<text text-anchor="middle" x="359.9224" y="-13.8" font-family="Times,serif" font-size="14.00" fill="#000000">SUB time.us.east</text>
</g>
<!-- subject&#45;&gt;sub2 -->
<g id="edge3" class="edge">
<title>subject&#45;&gt;sub2</title>
<path fill="none" stroke="#000000" d="M243.7484,-38.6697C258.6145,-36.0247 276.388,-32.8624 293.5086,-29.8163"/>
<polygon fill="#000000" stroke="#000000" points="294.2543,-33.2387 303.4866,-28.0411 293.0281,-26.347 294.2543,-33.2387"/>
<text text-anchor="middle" x="273.8379" y="-36.8" font-family="Times,serif" font-size="14.00" fill="#000000">msg</text>
</g>
</g>
</svg>
