<?xml version="1.0" encoding="UTF-8" standalone="no"?>
<!DOCTYPE svg PUBLIC "-//W3C//DTD SVG 1.1//EN"
 "http://www.w3.org/Graphics/SVG/1.1/DTD/svg11.dtd">
<!-- Generated by graphviz version 2.40.1 (20161225.0304)
 -->
<!-- Title: g Pages: 1 -->
<svg width="374pt" height="98pt"
 viewBox="0.00 0.00 373.81 98.00" xmlns="http://www.w3.org/2000/svg" xmlns:xlink="http://www.w3.org/1999/xlink">
<g id="graph0" class="graph" transform="scale(1 1) rotate(0) translate(4 94)">
<title>g</title>
<polygon fill="#ffffff" stroke="transparent" points="-4,4 -4,-94 369.8066,-94 369.8066,4 -4,4"/>
<!-- publisher -->
<g id="node1" class="node">
<title>publisher</title>
<path fill="none" stroke="#000000" d="M75.3492,-63C75.3492,-63 12.2162,-63 12.2162,-63 6.2162,-63 .2162,-57 .2162,-51 .2162,-51 .2162,-39 .2162,-39 .2162,-33 6.2162,-27 12.2162,-27 12.2162,-27 75.3492,-27 75.3492,-27 81.3492,-27 87.3492,-33 87.3492,-39 87.3492,-39 87.3492,-51 87.3492,-51 87.3492,-57 81.3492,-63 75.3492,-63"/>
<text text-anchor="middle" x="43.7827" y="-40.8" font-family="Times,serif" font-size="14.00" fill="#000000">PUB time.us</text>
</g>
<!-- subject -->
<g id="node2" class="node">
<title>subject</title>
<ellipse fill="none" stroke="#000000" cx="182.9033" cy="-45" rx="36" ry="36"/>
<text text-anchor="middle" x="182.9033" y="-40.8" font-family="Times,serif" font-size="14.00" fill="#000000">nats&#45;server</text>
</g>
<!-- publisher&#45;&gt;subject -->
<g id="edge1" class="edge">
<title>publisher&#45;&gt;subject</title>
<path fill="none" stroke="#000000" d="M87.4196,-45C103.1079,-45 120.8492,-45 136.7449,-45"/>
<polygon fill="#000000" stroke="#000000" points="136.8841,-48.5001 146.8841,-45 136.884,-41.5001 136.8841,-48.5001"/>
<text text-anchor="middle" x="117.2344" y="-47.8" font-family="Times,serif" font-size="14.00" fill="#000000">msg</text>
</g>
<!-- sub1 -->
<g id="node3" class="node">
<title>sub1</title>
<path fill="none" stroke="#000000" d="M353.5904,-90C353.5904,-90 290.4574,-90 290.4574,-90 284.4574,-90 278.4574,-84 278.4574,-78 278.4574,-78 278.4574,-66 278.4574,-66 278.4574,-60 284.4574,-54 290.4574,-54 290.4574,-54 353.5904,-54 353.5904,-54 359.5904,-54 365.5904,-60 365.5904,-66 365.5904,-66 365.5904,-78 365.5904,-78 365.5904,-84 359.5904,-90 353.5904,-90"/>
<text text-anchor="middle" x="322.0239" y="-67.8" font-family="Times,serif" font-size="14.00" fill="#000000">SUB time.us</text>
</g>
<!-- subject&#45;&gt;sub1 -->
<g id="edge2" class="edge">
<title>subject&#45;&gt;sub1</title>
<path fill="none" stroke="#000000" d="M218.3693,-51.8831C233.5027,-54.8201 251.4966,-58.3123 268.2103,-61.5561"/>
<polygon fill="#000000" stroke="#000000" points="267.9309,-65.0671 278.4146,-63.5365 269.2646,-58.1953 267.9309,-65.0671"/>
<text text-anchor="middle" x="248.5723" y="-61.8" font-family="Times,serif" font-size="14.00" fill="#000000">msg</text>
</g>
<!-- sub2 -->
<g id="node4" class="node">
<title>sub2</title>
<path fill="none" stroke="#000000" d="M353.5904,-36C353.5904,-36 290.4574,-36 290.4574,-36 284.4574,-36 278.4574,-30 278.4574,-24 278.4574,-24 278.4574,-12 278.4574,-12 278.4574,-6 284.4574,0 290.4574,0 290.4574,0 353.5904,0 353.5904,0 359.5904,0 365.5904,-6 365.5904,-12 365.5904,-12 365.5904,-24 365.5904,-24 365.5904,-30 359.5904,-36 353.5904,-36"/>
<text text-anchor="middle" x="322.0239" y="-13.8" font-family="Times,serif" font-size="14.00" fill="#000000">SUB time.us</text>
</g>
<!-- subject&#45;&gt;sub2 -->
<g id="edge3" class="edge">
<title>subject&#45;&gt;sub2</title>
<path fill="none" stroke="#000000" d="M218.3693,-38.1169C233.5027,-35.1799 251.4966,-31.6877 268.2103,-28.4439"/>
<polygon fill="#000000" stroke="#000000" points="269.2646,-31.8047 278.4146,-26.4635 267.9309,-24.9329 269.2646,-31.8047"/>
<text text-anchor="middle" x="248.5723" y="-35.8" font-family="Times,serif" font-size="14.00" fill="#000000">msg</text>
</g>
</g>
</svg>
