<?xml version="1.0" encoding="UTF-8" standalone="no"?>
<!DOCTYPE svg PUBLIC "-//W3C//DTD SVG 1.1//EN"
 "http://www.w3.org/Graphics/SVG/1.1/DTD/svg11.dtd">
<!-- Generated by graphviz version 2.40.1 (20161225.0304)
 -->
<!-- Title: nats_streaming Pages: 1 -->
<svg width="350pt" height="221pt"
 viewBox="0.00 0.00 349.53 221.00" xmlns="http://www.w3.org/2000/svg" xmlns:xlink="http://www.w3.org/1999/xlink">
<g id="graph0" class="graph" transform="scale(1 1) rotate(0) translate(4 217)">
<title>nats_streaming</title>
<polygon fill="#ffffff" stroke="transparent" points="-4,4 -4,-217 345.5327,-217 345.5327,4 -4,4"/>
<g id="clust1" class="cluster">
<title>cluster_nats_streaming_server</title>
<polygon fill="none" stroke="#000000" points="33.5327,-44 33.5327,-118 333.5327,-118 333.5327,-44 33.5327,-44"/>
<text text-anchor="middle" x="183.5327" y="-50.8" font-family="Times,serif" font-size="14.00" fill="#000000">NATS Streaming Server</text>
</g>
<!-- application -->
<g id="node1" class="node">
<title>application</title>
<polygon fill="none" stroke="#000000" points="0,-146.5 0,-212.5 175.0654,-212.5 175.0654,-146.5 0,-146.5"/>
<text text-anchor="middle" x="87.5327" y="-197.3" font-family="Times,serif" font-size="14.00" fill="#000000">Application Code</text>
<polyline fill="none" stroke="#000000" points="0,-190.5 175.0654,-190.5 "/>
<text text-anchor="middle" x="87.5327" y="-175.3" font-family="Times,serif" font-size="14.00" fill="#000000">NATS Streaming Client API</text>
<polyline fill="none" stroke="#000000" points="0,-168.5 175.0654,-168.5 "/>
<text text-anchor="middle" x="87.5327" y="-153.3" font-family="Times,serif" font-size="14.00" fill="#000000">NATS Client API</text>
</g>
<!-- nats_server -->
<g id="node2" class="node">
<title>nats_server</title>
<polygon fill="none" stroke="#000000" points="133.0776,-110 41.9878,-110 41.9878,-74 133.0776,-74 133.0776,-110"/>
<text text-anchor="middle" x="87.5327" y="-87.8" font-family="Times,serif" font-size="14.00" fill="#000000">NATS Server</text>
</g>
<!-- application&#45;&gt;nats_server -->
<g id="edge2" class="edge">
<title>application:nats&#45;&gt;nats_server</title>
<path fill="none" stroke="#000000" stroke-width="2" d="M87.5327,-136.3888C87.5327,-136.3888 87.5327,-120.1041 87.5327,-120.1041"/>
<polygon fill="#000000" stroke="#000000" stroke-width="2" points="91.0328,-120.1041 87.5327,-110.1041 84.0328,-120.1041 91.0328,-120.1041"/>
<polygon fill="#000000" stroke="#000000" stroke-width="2" points="84.0328,-136.3888 87.5327,-146.3888 91.0328,-136.3888 84.0328,-136.3888"/>
</g>
<!-- streaming_module -->
<g id="node3" class="node">
<title>streaming_module</title>
<polygon fill="none" stroke="#000000" points="325.6301,-110 205.4354,-110 205.4354,-74 325.6301,-74 325.6301,-110"/>
<text text-anchor="middle" x="265.5327" y="-87.8" font-family="Times,serif" font-size="14.00" fill="#000000">Streaming Module</text>
</g>
<!-- nats_server&#45;&gt;streaming_module -->
<g id="edge1" class="edge">
<title>nats_server&#45;&gt;streaming_module</title>
<path fill="none" stroke="#000000" stroke-width="2" d="M143.3721,-92C143.3721,-92 195.4077,-92 195.4077,-92"/>
<polygon fill="#000000" stroke="#000000" stroke-width="2" points="195.4077,-95.5 205.4077,-92 195.4077,-88.5 195.4077,-95.5"/>
<polygon fill="#000000" stroke="#000000" stroke-width="2" points="143.3721,-88.5 133.3721,-92 143.3721,-95.5 143.3721,-88.5"/>
</g>
<!-- storage -->
<g id="node4" class="node">
<title>storage</title>
<path fill="none" stroke="#000000" d="M281.9621,-36C281.9621,-36 249.1033,-36 249.1033,-36 243.1033,-36 237.1033,-30 237.1033,-24 237.1033,-24 237.1033,-12 237.1033,-12 237.1033,-6 243.1033,0 249.1033,0 249.1033,0 281.9621,0 281.9621,0 287.9621,0 293.9621,-6 293.9621,-12 293.9621,-12 293.9621,-24 293.9621,-24 293.9621,-30 287.9621,-36 281.9621,-36"/>
<text text-anchor="middle" x="265.5327" y="-13.8" font-family="Times,serif" font-size="14.00" fill="#000000">storage</text>
</g>
<!-- streaming_module&#45;&gt;storage -->
<g id="edge3" class="edge">
<title>streaming_module&#45;&gt;storage</title>
<path fill="none" stroke="#000000" stroke-width="2" d="M265.5327,-63.7079C265.5327,-63.7079 265.5327,-46.0817 265.5327,-46.0817"/>
<polygon fill="#000000" stroke="#000000" stroke-width="2" points="269.0328,-46.0817 265.5327,-36.0817 262.0328,-46.0817 269.0328,-46.0817"/>
<polygon fill="#000000" stroke="#000000" stroke-width="2" points="262.0328,-63.7078 265.5327,-73.7079 269.0328,-63.7079 262.0328,-63.7078"/>
</g>
</g>
</svg>
