<?xml version="1.0" encoding="UTF-8" standalone="no"?>
<!DOCTYPE svg PUBLIC "-//W3C//DTD SVG 1.1//EN"
 "http://www.w3.org/Graphics/SVG/1.1/DTD/svg11.dtd">
<!-- Generated by graphviz version 2.40.1 (20161225.0304)
 -->
<!-- Title: g Pages: 1 -->
<svg width="243pt" height="80pt"
 viewBox="0.00 0.00 242.84 80.00" xmlns="http://www.w3.org/2000/svg" xmlns:xlink="http://www.w3.org/1999/xlink">
<g id="graph0" class="graph" transform="scale(1 1) rotate(0) translate(4 76)">
<title>g</title>
<polygon fill="#ffffff" stroke="transparent" points="-4,4 -4,-76 238.8447,-76 238.8447,4 -4,4"/>
<!-- client -->
<g id="node1" class="node">
<title>client</title>
<path fill="none" stroke="#000000" d="M76.5917,-54C76.5917,-54 12.1358,-54 12.1358,-54 6.1358,-54 .1358,-48 .1358,-42 .1358,-42 .1358,-30 .1358,-30 .1358,-24 6.1358,-18 12.1358,-18 12.1358,-18 76.5917,-18 76.5917,-18 82.5917,-18 88.5917,-24 88.5917,-30 88.5917,-30 88.5917,-42 88.5917,-42 88.5917,-48 82.5917,-54 76.5917,-54"/>
<text text-anchor="middle" x="44.3638" y="-31.8" font-family="Times,serif" font-size="14.00" fill="#000000">NATS Client</text>
</g>
<!-- natsserver -->
<g id="node2" class="node">
<title>natsserver</title>
<ellipse fill="none" stroke="#000000" cx="198.8447" cy="-36" rx="36" ry="36"/>
<text text-anchor="middle" x="198.8447" y="-31.8" font-family="Times,serif" font-size="14.00" fill="#000000">nats&#45;server</text>
</g>
<!-- client&#45;&gt;natsserver -->
<g id="edge1" class="edge">
<title>client&#45;&gt;natsserver</title>
<path fill="none" stroke="#000000" d="M88.6318,-36C108.5997,-36 132.1868,-36 152.4062,-36"/>
<polygon fill="#000000" stroke="#000000" points="152.6357,-39.5001 162.6357,-36 152.6357,-32.5001 152.6357,-39.5001"/>
<text text-anchor="middle" x="125.7861" y="-38.8" font-family="Times,serif" font-size="14.00" fill="#000000">PING</text>
</g>
<!-- natsserver&#45;&gt;client -->
<g id="edge2" class="edge">
<title>natsserver&#45;&gt;client</title>
<path fill="none" stroke="#000000" d="M165.2729,-22.9664C158.6007,-20.9033 151.5753,-19.0922 144.8447,-18 128.1225,-15.2864 123.5016,-15.6277 106.7275,-18 104.0479,-18.379 101.3222,-18.8453 98.5826,-19.3791"/>
<polygon fill="#000000" stroke="#000000" points="97.6683,-15.9967 88.6596,-21.5728 99.1794,-22.8316 97.6683,-15.9967"/>
<text text-anchor="middle" x="125.7861" y="-20.8" font-family="Times,serif" font-size="14.00" fill="#000000">PONG</text>
</g>
</g>
</svg>
