<?xml version="1.0" encoding="UTF-8" standalone="no"?>
<!DOCTYPE svg PUBLIC "-//W3C//DTD SVG 1.1//EN"
 "http://www.w3.org/Graphics/SVG/1.1/DTD/svg11.dtd">
<!-- Generated by graphviz version 2.40.1 (20161225.0304)
 -->
<!-- Title: g Pages: 1 -->
<svg width="506pt" height="152pt"
 viewBox="0.00 0.00 505.96 152.00" xmlns="http://www.w3.org/2000/svg" xmlns:xlink="http://www.w3.org/1999/xlink">
<g id="graph0" class="graph" transform="scale(1 1) rotate(0) translate(4 148)">
<title>g</title>
<polygon fill="#ffffff" stroke="transparent" points="-4,4 -4,-148 501.959,-148 501.959,4 -4,4"/>
<!-- publisher -->
<g id="node1" class="node">
<title>publisher</title>
<path fill="none" stroke="#000000" d="M141.4628,-90C141.4628,-90 12.1788,-90 12.1788,-90 6.1788,-90 .1788,-84 .1788,-78 .1788,-78 .1788,-66 .1788,-66 .1788,-60 6.1788,-54 12.1788,-54 12.1788,-54 141.4628,-54 141.4628,-54 147.4628,-54 153.4628,-60 153.4628,-66 153.4628,-66 153.4628,-78 153.4628,-78 153.4628,-84 147.4628,-90 141.4628,-90"/>
<text text-anchor="middle" x="76.8208" y="-67.8" font-family="Times,serif" font-size="14.00" fill="#000000">PUB time.us.east.atlanta</text>
</g>
<!-- subject -->
<g id="node2" class="node">
<title>subject</title>
<ellipse fill="none" stroke="#000000" cx="248.9795" cy="-72" rx="36" ry="36"/>
<text text-anchor="middle" x="248.9795" y="-67.8" font-family="Times,serif" font-size="14.00" fill="#000000">nats&#45;server</text>
</g>
<!-- publisher&#45;&gt;subject -->
<g id="edge1" class="edge">
<title>publisher&#45;&gt;subject</title>
<path fill="none" stroke="#000000" d="M153.5855,-72C170.3418,-72 187.5746,-72 202.7037,-72"/>
<polygon fill="#000000" stroke="#000000" points="202.8099,-75.5001 212.8099,-72 202.8098,-68.5001 202.8099,-75.5001"/>
<text text-anchor="middle" x="183.3105" y="-74.8" font-family="Times,serif" font-size="14.00" fill="#000000">msg</text>
</g>
<!-- sub1 -->
<g id="node3" class="node">
<title>sub1</title>
<path fill="none" stroke="#000000" d="M485.7802,-144C485.7802,-144 356.4962,-144 356.4962,-144 350.4962,-144 344.4962,-138 344.4962,-132 344.4962,-132 344.4962,-120 344.4962,-120 344.4962,-114 350.4962,-108 356.4962,-108 356.4962,-108 485.7802,-108 485.7802,-108 491.7802,-108 497.7802,-114 497.7802,-120 497.7802,-120 497.7802,-132 497.7802,-132 497.7802,-138 491.7802,-144 485.7802,-144"/>
<text text-anchor="middle" x="421.1382" y="-121.8" font-family="Times,serif" font-size="14.00" fill="#000000">SUB time.us.east.atlanta</text>
</g>
<!-- subject&#45;&gt;sub1 -->
<g id="edge3" class="edge">
<title>subject&#45;&gt;sub1</title>
<path fill="none" stroke="#000000" d="M283.4046,-82.7979C303.5855,-89.1279 329.7773,-97.3434 353.8947,-104.9081"/>
<polygon fill="#000000" stroke="#000000" points="353.1348,-108.3379 363.724,-107.9912 355.2299,-101.6587 353.1348,-108.3379"/>
<text text-anchor="middle" x="314.6484" y="-97.8" font-family="Times,serif" font-size="14.00" fill="#000000">msg</text>
</g>
<!-- sub2 -->
<g id="node4" class="node">
<title>sub2</title>
<path fill="none" stroke="#000000" d="M458.2036,-90C458.2036,-90 384.0727,-90 384.0727,-90 378.0727,-90 372.0727,-84 372.0727,-78 372.0727,-78 372.0727,-66 372.0727,-66 372.0727,-60 378.0727,-54 384.0727,-54 384.0727,-54 458.2036,-54 458.2036,-54 464.2036,-54 470.2036,-60 470.2036,-66 470.2036,-66 470.2036,-78 470.2036,-78 470.2036,-84 464.2036,-90 458.2036,-90"/>
<text text-anchor="middle" x="421.1382" y="-67.8" font-family="Times,serif" font-size="14.00" fill="#000000">SUB time.us.*</text>
</g>
<!-- subject&#45;&gt;sub2 -->
<!-- sub3 -->
<g id="node5" class="node">
<title>sub3</title>
<path fill="none" stroke="#000000" d="M458.5991,-36C458.5991,-36 383.6772,-36 383.6772,-36 377.6772,-36 371.6772,-30 371.6772,-24 371.6772,-24 371.6772,-12 371.6772,-12 371.6772,-6 377.6772,0 383.6772,0 383.6772,0 458.5991,0 458.5991,0 464.5991,0 470.5991,-6 470.5991,-12 470.5991,-12 470.5991,-24 470.5991,-24 470.5991,-30 464.5991,-36 458.5991,-36"/>
<text text-anchor="middle" x="421.1382" y="-13.8" font-family="Times,serif" font-size="14.00" fill="#000000">SUB time.us.&gt;</text>
</g>
<!-- subject&#45;&gt;sub3 -->
<g id="edge4" class="edge">
<title>subject&#45;&gt;sub3</title>
<path fill="none" stroke="#000000" d="M283.2153,-60.439C289.7664,-58.2691 296.5774,-56.0419 302.9795,-54 322.1173,-47.8961 343.0697,-41.4392 361.9465,-35.7048"/>
<polygon fill="#000000" stroke="#000000" points="363.0525,-39.0269 371.6081,-32.7777 361.0228,-32.3276 363.0525,-39.0269"/>
<text text-anchor="middle" x="314.6484" y="-56.8" font-family="Times,serif" font-size="14.00" fill="#000000">msg</text>
</g>
</g>
</svg>
