<?xml version="1.0" encoding="UTF-8" standalone="no"?><!DOCTYPE svg PUBLIC "-//W3C//DTD SVG 1.1//EN" "http://www.w3.org/Graphics/SVG/1.1/DTD/svg11.dtd"><!-- Generated by graphviz version 2.40.1 (20161225.0304)
 --><!-- Title: G Pages: 1 --><svg xmlns="http://www.w3.org/2000/svg" xmlns:xlink="http://www.w3.org/1999/xlink" width="549pt" height="112pt" viewBox="0.00 0.00 548.54 112.00">
<g id="graph0" class="graph" transform="scale(1 1) rotate(0) translate(4 108)">
<title>G</title>
<polygon fill="#ffffff" stroke="transparent" points="-4,4 -4,-108 544.5428,-108 544.5428,4 -4,4"/>
<!-- client -->
<g id="node1" class="node">
<title>client</title>
<path fill="none" stroke="#000000" d="M78.4075,-54C78.4075,-54 11.8639,-54 11.8639,-54 5.8639,-54 -.1361,-48 -.1361,-42 -.1361,-42 -.1361,-30 -.1361,-30 -.1361,-24 5.8639,-18 11.8639,-18 11.8639,-18 78.4075,-18 78.4075,-18 84.4075,-18 90.4075,-24 90.4075,-30 90.4075,-30 90.4075,-42 90.4075,-42 90.4075,-48 84.4075,-54 78.4075,-54"/>
<text text-anchor="middle" x="45.1357" y="-31.8" font-family="Times,serif" font-size="14.00" fill="#000000">NATS Client</text>
</g>
<!-- natsserver -->
<g id="node2" class="node">
<title>natsserver</title>
<ellipse fill="none" stroke="#000000" cx="162.2714" cy="-36" rx="36" ry="36"/>
<text text-anchor="middle" x="162.2714" y="-31.8" font-family="Times,serif" font-size="14.00" fill="#000000">nats-server</text>
</g>
<!-- client&#45;&gt;natsserver -->
<g id="edge1" class="edge">
<title>client-&gt;natsserver</title>
<path fill="none" stroke="#000000" d="M90.4234,-36C102.2691,-36 114.8799,-36 126.176,-36"/>
</g>
<!-- natsserver2 -->
<g id="node3" class="node">
<title>natsserver2</title>
<ellipse fill="none" stroke="#000000" cx="270.2714" cy="-68" rx="36" ry="36"/>
<text text-anchor="middle" x="270.2714" y="-63.8" font-family="Times,serif" font-size="14.00" fill="#000000">nats-server</text>
</g>
<!-- natsserver&#45;&gt;natsserver2 -->
<g id="edge2" class="edge">
<title>natsserver-&gt;natsserver2</title>
<path fill="none" stroke="#000000" d="M197.0378,-46.3011C209.3705,-49.9553 223.2429,-54.0656 235.5702,-57.7182"/>
</g>
<!-- natsserver3 -->
<g id="node4" class="node">
<title>natsserver3</title>
<ellipse fill="none" stroke="#000000" cx="378.2714" cy="-36" rx="36" ry="36"/>
<text text-anchor="middle" x="378.2714" y="-31.8" font-family="Times,serif" font-size="14.00" fill="#000000">nats-server</text>
</g>
<!-- natsserver2&#45;&gt;natsserver3 -->
<g id="edge3" class="edge">
<title>natsserver2-&gt;natsserver3</title>
<path fill="none" stroke="#000000" d="M305.0378,-57.6989C317.3705,-54.0447 331.2429,-49.9344 343.5702,-46.2818"/>
</g>
<!-- natsserver3&#45;&gt;natsserver -->
<g id="edge5" class="edge">
<title>natsserver3-&gt;natsserver</title>
<path fill="none" stroke="#000000" d="M342.9192,-28.3192C331.3041,-26.1441 318.2903,-24.0763 306.2714,-23 274.399,-20.1457 266.1438,-20.1457 234.2714,-23 222.2525,-24.0763 209.2387,-26.1441 197.6236,-28.3192"/>
</g>
<!-- client2 -->
<g id="node5" class="node">
<title>client2</title>
<path fill="none" stroke="#000000" d="M528.6789,-54C528.6789,-54 462.1353,-54 462.1353,-54 456.1353,-54 450.1353,-48 450.1353,-42 450.1353,-42 450.1353,-30 450.1353,-30 450.1353,-24 456.1353,-18 462.1353,-18 462.1353,-18 528.6789,-18 528.6789,-18 534.6789,-18 540.6789,-24 540.6789,-30 540.6789,-30 540.6789,-42 540.6789,-42 540.6789,-48 534.6789,-54 528.6789,-54"/>
<text text-anchor="middle" x="495.4071" y="-31.8" font-family="Times,serif" font-size="14.00" fill="#000000">NATS Client</text>
</g>
<!-- natsserver3&#45;&gt;client2 -->
<g id="edge4" class="edge">
<title>natsserver3-&gt;client2</title>
<path fill="none" stroke="#000000" d="M414.3718,-36C425.6649,-36 438.2717,-36 450.1141,-36"/>
</g>
</g>
</svg>