<svg id="Layer_1" data-name="Layer 1" xmlns="http://www.w3.org/2000/svg" viewBox="0 0 517.98 284.28"><defs><style>.cls-1{fill:#fff;}.cls-2{fill:none;stroke:#000;}.cls-3,.cls-5{isolation:isolate;font-family:Times-Roman, Times;}.cls-3{font-size:14px;}.cls-4{letter-spacing:-0.11em;}.cls-5{font-size:12px;}</style></defs><polygon class="cls-1" points="0 284.28 0 0 517.98 0 517.98 284.28 0 284.28"/><g id="node1"><path class="cls-2" d="M82.64,22H16.09c-6,0-12,6-12,12V46c0,6,6,12,12,12H82.64c6,0,12-6,12-12V34c0-6-6-12-12-12" transform="translate(5.99 174.67)"/><text class="cls-3" transform="translate(18.99 218.87)">N<tspan class="cls-4" x="10.11" y="0">A</tspan><tspan x="18.67" y="0">TS Client</tspan></text></g><g id="node2"><circle class="cls-2" cx="274.15" cy="187.67" r="36"/><text class="cls-3" transform="translate(243.44 191.87)">nats-server</text></g><g id="edge1"><path class="cls-2" d="M201.64,38.87l34.79-8.25" transform="translate(5.99 174.67)"/></g><g id="node3"><path class="cls-2" d="M493.79-49.69H427.25c-6,0-12,6-12,12v12c0,6,6,12,12,12h66.54c6,0,12-6,12-12v-12c0-6-6-12-12-12" transform="translate(5.99 174.67)"/><text class="cls-3" transform="translate(430.14 147.18)">N<tspan class="cls-4" x="10.11" y="0">A</tspan><tspan x="18.67" y="0">TS Client</tspan></text></g><g id="edge2"><path class="cls-2" d="M378.66-31.69h35.75" transform="translate(5.99 174.67)"/></g><g id="node2-2" data-name="node2"><circle class="cls-2" cx="348.9" cy="141.98" r="36"/><text class="cls-3" transform="translate(318.19 146.18)">nats-server</text></g><g id="node2-3" data-name="node2"><circle class="cls-2" cx="274.15" cy="97.79" r="36"/><text class="cls-3" transform="translate(243.44 101.99)">nats-server</text></g><g id="edge1-2" data-name="edge1"><path class="cls-2" d="M268.38-40.19l-.43,17" transform="translate(5.99 174.67)"/></g><g id="edge2-2" data-name="edge2"><path class="cls-2" d="M298.16-56.61l12,9.17" transform="translate(5.99 174.67)"/></g><g id="edge2-3" data-name="edge2"><path class="cls-2" d="M297.19-8.52l13.95-5.78" transform="translate(5.99 174.67)"/></g><g id="node2-4" data-name="node2"><circle class="cls-2" cx="171.91" cy="214.67" r="36"/><text class="cls-3" transform="translate(141.2 213.87)">nats-server</text></g><circle class="cls-2" cx="171.91" cy="70.79" r="36"/><text class="cls-3" transform="translate(141.18 70.99)">nats-server</text><text class="cls-5" transform="translate(145.76 87.79)">(leaf node)</text><text class="cls-5" transform="translate(145.76 230.79)">(leaf node)</text><g id="edge1-3" data-name="edge1"><path class="cls-2" d="M202.38-100.88l32.3,10" transform="translate(5.99 174.67)"/></g><g id="node1-2" data-name="node1"><path class="cls-2" d="M82.64-167.25H16.09c-6,0-12,6-12,12v12c0,6,6,12,12,12H82.64c6,0,12-6,12-12v-12c0-6-6-12-12-12" transform="translate(5.99 174.67)"/><text class="cls-3" transform="translate(18.99 29.62)">N<tspan class="cls-4" x="10.11" y="0">A</tspan><tspan x="18.67" y="0">TS Client</tspan></text></g><g id="node1-3" data-name="node1"><path class="cls-2" d="M82.64-121.88H16.09c-6,0-12,6-12,12v12c0,6,6,12,12,12H82.64c6,0,12-6,12-12v-12c0-6-6-12-12-12" transform="translate(5.99 174.67)"/><text class="cls-3" transform="translate(18.99 74.99)">N<tspan class="cls-4" x="10.11" y="0">A</tspan><tspan x="18.67" y="0">TS Client</tspan></text></g><g id="node1-4" data-name="node1"><path class="cls-2" d="M82.64-76.5H16.09c-6,0-12,6-12,12v12c0,6,6,12,12,12H82.64c6,0,12-6,12-12v-12c0-6-6-12-12-12" transform="translate(5.99 174.67)"/><text class="cls-3" transform="translate(18.99 120.37)">N<tspan class="cls-4" x="10.11" y="0">A</tspan><tspan x="18.67" y="0">TS Client</tspan></text></g><g id="node1-5" data-name="node1"><path class="cls-2" d="M82.64-22H16.09c-6,0-12,6-12,12V2c0,6,6,12,12,12H82.64c6,0,12-6,12-12V-10c0-6-6-12-12-12" transform="translate(5.99 174.67)"/><text class="cls-3" transform="translate(18.99 174.87)">N<tspan class="cls-4" x="10.11" y="0">A</tspan><tspan x="18.67" y="0">TS Client</tspan></text></g><g id="node1-6" data-name="node1"><path class="cls-2" d="M82.64,66H16.09c-6,0-12,6-12,12V90c0,6,6,12,12,12H82.64c6,0,12-6,12-12V78c0-6-6-12-12-12" transform="translate(5.99 174.67)"/><text class="cls-3" transform="translate(18.99 262.87)">N<tspan class="cls-4" x="10.11" y="0">A</tspan><tspan x="18.67" y="0">TS Client</tspan></text></g><g id="node3-2" data-name="node3"><path class="cls-2" d="M301.65,67H235.11c-6,0-12,6-12,12V91c0,6,6,12,12,12h66.54c6,0,12-6,12-12V79c0-6-6-12-12-12" transform="translate(5.99 174.67)"/><text class="cls-3" transform="translate(238 263.87)">N<tspan class="cls-4" x="10.11" y="0">A</tspan><tspan x="18.67" y="0">TS Client</tspan></text></g><g id="node3-3" data-name="node3"><path class="cls-2" d="M301.22-167.25H234.67c-6,0-12,6-12,12v12c0,6,6,12,12,12h66.55c6,0,12-6,12-12v-12c0-6-6-12-12-12" transform="translate(5.99 174.67)"/><text class="cls-3" transform="translate(237.57 29.62)">N<tspan class="cls-4" x="10.11" y="0">A</tspan><tspan x="18.67" y="0">TS Client</tspan></text></g><line class="cls-2" x1="100.62" y1="70.79" x2="135.91" y2="70.79"/><line class="cls-2" x1="100.62" y1="214.04" x2="135.91" y2="214.04"/><line class="cls-2" x1="100.12" y1="24.31" x2="145.92" y2="44.52"/><line class="cls-2" x1="100.12" y1="168.57" x2="145.92" y2="188.77"/><line class="cls-2" x1="101.12" y1="113.46" x2="143.92" y2="94.58"/><line class="cls-2" x1="100.62" y1="259.62" x2="146.42" y2="239.41"/><line class="cls-2" x1="273.93" y1="43.42" x2="274.15" y2="61.79"/><line class="cls-2" x1="273.82" y1="223.61" x2="274.04" y2="241.98"/></svg>