<?xml version="1.0" encoding="UTF-8" standalone="no"?>
<!DOCTYPE svg PUBLIC "-//W3C//DTD SVG 1.1//EN"
 "http://www.w3.org/Graphics/SVG/1.1/DTD/svg11.dtd">
<!-- Generated by graphviz version 2.40.1 (20161225.0304)
 -->
<!-- Title: g Pages: 1 -->
<svg width="500pt" height="152pt"
 viewBox="0.00 0.00 499.52 152.00" xmlns="http://www.w3.org/2000/svg" xmlns:xlink="http://www.w3.org/1999/xlink">
<g id="graph0" class="graph" transform="scale(1 1) rotate(0) translate(4 148)">
<title>g</title>
<polygon fill="#ffffff" stroke="transparent" points="-4,4 -4,-148 495.5219,-148 495.5219,4 -4,4"/>
<!-- publisher -->
<g id="node1" class="node">
<title>publisher</title>
<path fill="none" stroke="#000000" d="M77.2514,-90C77.2514,-90 12.2486,-90 12.2486,-90 6.2486,-90 .2486,-84 .2486,-78 .2486,-78 .2486,-66 .2486,-66 .2486,-60 6.2486,-54 12.2486,-54 12.2486,-54 77.2514,-54 77.2514,-54 83.2514,-54 89.2514,-60 89.2514,-66 89.2514,-66 89.2514,-78 89.2514,-78 89.2514,-84 83.2514,-90 77.2514,-90"/>
<text text-anchor="middle" x="44.75" y="-67.8" font-family="Times,serif" font-size="14.00" fill="#000000">PUB updates</text>
</g>
<!-- subject -->
<g id="node2" class="node">
<title>subject</title>
<ellipse fill="none" stroke="#000000" cx="234.6868" cy="-72" rx="48.8014" ry="48.8014"/>
<text text-anchor="middle" x="234.6868" y="-67.8" font-family="Times,serif" font-size="14.00" fill="#000000">nats&#45;server</text>
</g>
<!-- publisher&#45;&gt;subject -->
<g id="edge1" class="edge">
<title>publisher&#45;&gt;subject</title>
<path fill="none" stroke="#000000" d="M89.2817,-72C115.0626,-72 147.8295,-72 175.729,-72"/>
<polygon fill="#000000" stroke="#000000" points="175.7656,-75.5001 185.7656,-72 175.7656,-68.5001 175.7656,-75.5001"/>
<text text-anchor="middle" x="137.6431" y="-74.8" font-family="Times,serif" font-size="14.00" fill="#000000">msgs 1,2,3</text>
</g>
<!-- sub1 -->
<g id="node3" class="node">
<title>sub1</title>
<path fill="none" stroke="#000000" d="M479.5703,-144C479.5703,-144 365.3769,-144 365.3769,-144 359.3769,-144 353.3769,-138 353.3769,-132 353.3769,-132 353.3769,-120 353.3769,-120 353.3769,-114 359.3769,-108 365.3769,-108 365.3769,-108 479.5703,-108 479.5703,-108 485.5703,-108 491.5703,-114 491.5703,-120 491.5703,-120 491.5703,-132 491.5703,-132 491.5703,-138 485.5703,-144 479.5703,-144"/>
<text text-anchor="middle" x="422.4736" y="-121.8" font-family="Times,serif" font-size="14.00" fill="#000000">SUB updates workers</text>
</g>
<!-- subject&#45;&gt;sub1 -->
<g id="edge2" class="edge">
<title>subject&#45;&gt;sub1</title>
<path fill="none" stroke="#000000" d="M282.0733,-85.6265C302.7038,-91.559 327.3418,-98.6439 350.1777,-105.2106"/>
<polygon fill="#000000" stroke="#000000" points="349.2594,-108.5883 359.8373,-107.9883 351.194,-101.8609 349.2594,-108.5883"/>
<text text-anchor="middle" x="318.5063" y="-102.8" font-family="Times,serif" font-size="14.00" fill="#000000">msg 2</text>
</g>
<!-- sub2 -->
<g id="node4" class="node">
<title>sub2</title>
<path fill="none" stroke="#000000" d="M479.5703,-90C479.5703,-90 365.3769,-90 365.3769,-90 359.3769,-90 353.3769,-84 353.3769,-78 353.3769,-78 353.3769,-66 353.3769,-66 353.3769,-60 359.3769,-54 365.3769,-54 365.3769,-54 479.5703,-54 479.5703,-54 485.5703,-54 491.5703,-60 491.5703,-66 491.5703,-66 491.5703,-78 491.5703,-78 491.5703,-84 485.5703,-90 479.5703,-90"/>
<text text-anchor="middle" x="422.4736" y="-67.8" font-family="Times,serif" font-size="14.00" fill="#000000">SUB updates workers</text>
</g>
<!-- subject&#45;&gt;sub2 -->
<g id="edge3" class="edge">
<title>subject&#45;&gt;sub2</title>
<path fill="none" stroke="#000000" d="M284.0255,-72C302.1531,-72 323.1652,-72 343.2577,-72"/>
<polygon fill="#000000" stroke="#000000" points="343.3446,-75.5001 353.3446,-72 343.3445,-68.5001 343.3446,-75.5001"/>
<text text-anchor="middle" x="318.5063" y="-74.8" font-family="Times,serif" font-size="14.00" fill="#000000">msg 1</text>
</g>
<!-- sub3 -->
<g id="node5" class="node">
<title>sub3</title>
<path fill="none" stroke="#000000" d="M479.5703,-36C479.5703,-36 365.3769,-36 365.3769,-36 359.3769,-36 353.3769,-30 353.3769,-24 353.3769,-24 353.3769,-12 353.3769,-12 353.3769,-6 359.3769,0 365.3769,0 365.3769,0 479.5703,0 479.5703,0 485.5703,0 491.5703,-6 491.5703,-12 491.5703,-12 491.5703,-24 491.5703,-24 491.5703,-30 485.5703,-36 479.5703,-36"/>
<text text-anchor="middle" x="422.4736" y="-13.8" font-family="Times,serif" font-size="14.00" fill="#000000">SUB updates workers</text>
</g>
<!-- subject&#45;&gt;sub3 -->
<g id="edge4" class="edge">
<title>subject&#45;&gt;sub3</title>
<path fill="none" stroke="#000000" d="M282.0733,-58.3735C302.7038,-52.441 327.3418,-45.3561 350.1777,-38.7894"/>
<polygon fill="#000000" stroke="#000000" points="351.194,-42.1391 359.8373,-36.0117 349.2594,-35.4117 351.194,-42.1391"/>
<text text-anchor="middle" x="318.5063" y="-53.8" font-family="Times,serif" font-size="14.00" fill="#000000">msg 3</text>
</g>
</g>
</svg>
