<svg id="Layer_1" data-name="Layer 1" xmlns="http://www.w3.org/2000/svg" viewBox="0 0 377 156.5"><defs><style>.cls-1{fill:#fff;}.cls-2{fill:none;stroke:#000;}.cls-3{isolation:isolate;font-size:14px;font-family:Times-Roman, Times;}.cls-4{letter-spacing:-0.11em;}</style></defs><polygon class="cls-1" points="0 156.5 0 0 377 0 377 156.5 0 156.5"/><g id="node1"><path class="cls-2" d="M82.6,22H16.1c-6,0-12,6-12,12V46c0,6,6,12,12,12H82.6c6,0,12-6,12-12V34c0-6-6-12-12-12" transform="translate(-0.2 76.5)"/><text class="cls-3" transform="translate(12.8 120.7)">N<tspan class="cls-4" x="10.11" y="0">A</tspan><tspan x="18.67" y="0">TS Client</tspan></text></g><g id="node2"><circle class="cls-2" cx="166.3" cy="116.5" r="36"/><text class="cls-3" transform="translate(135.59 120.7)">nats-server</text></g><g id="edge1"><path class="cls-2" d="M94.7,40h35.8" transform="translate(-0.2 76.5)"/></g><g id="node3"><path class="cls-2" d="M361.8-52.1H295.3c-6,0-12,6-12,12v12c0,6,6,12,12,12h66.5c6,0,12-6,12-12v-12c0-6-6-12-12-12" transform="translate(-0.2 76.5)"/><text class="cls-3" transform="translate(291.94 46.63)">N<tspan class="cls-4" x="10.11" y="0">A</tspan><tspan x="18.67" y="0">TS Client</tspan></text></g><g id="edge2"><path class="cls-2" d="M247.5-34.1h35.7" transform="translate(-0.2 76.5)"/></g><g id="node2-2" data-name="node2"><circle class="cls-2" cx="211.3" cy="40.5" r="36"/><text class="cls-3" transform="translate(180.57 44.7)">nats-server</text></g><g id="node2-3" data-name="node2"><circle class="cls-2" cx="119.2" cy="40.5" r="36"/><text class="cls-3" transform="translate(88.52 44.7)">nats-server</text></g><g id="edge1-2" data-name="edge1"><path class="cls-2" d="M129.7-1.2c3.9,4.8,8.1,9.8,11.8,14.4" transform="translate(-0.2 76.5)"/></g><g id="edge1-3" data-name="edge1"><path class="cls-2" d="M203.5-.2c-4.1,4.6-8.5,9.5-12.4,13.8" transform="translate(-0.2 76.5)"/></g><g id="edge2-2" data-name="edge2"><path class="cls-2" d="M155.4-34.1h20.2" transform="translate(-0.2 76.5)"/></g></svg>