<svg id="Layer_1" data-name="Layer 1" xmlns="http://www.w3.org/2000/svg" viewBox="0 0 599.12 170.11"><defs><style>.cls-1{fill:#fff;}.cls-2,.cls-5,.cls-6,.cls-7{fill:none;stroke:#000;}.cls-3{isolation:isolate;font-size:14px;font-family:Times-Roman, Times;}.cls-4{letter-spacing:-0.11em;}.cls-5,.cls-6,.cls-7{stroke-width:0.5px;}.cls-6{stroke-dasharray:9.74 9.74;}.cls-7{stroke-dasharray:10;}</style></defs><polygon class="cls-1" points="0 170.11 0 0 599.12 0 599.12 170.11 0 170.11"/><g id="node1"><path class="cls-2" d="M82.64,22H16.09c-6,0-12,6-12,12V46c0,6,6,12,12,12H82.64c6,0,12-6,12-12V34c0-6-6-12-12-12" transform="translate(0 90.87)"/><text class="cls-3" transform="translate(13 135.07)">N<tspan class="cls-4" x="10.11" y="0">A</tspan><tspan x="18.67" y="0">TS Client</tspan></text></g><g id="node2"><circle class="cls-2" cx="167.16" cy="130.87" r="36"/><text class="cls-3" transform="translate(136.46 135.07)">nats-server</text></g><g id="edge1"><path class="cls-2" d="M94.65,40h35.76" transform="translate(0 90.87)"/></g><g id="node3"><path class="cls-2" d="M582.32-69.62H515.78c-6,0-12,6-12,12v12c0,6,6,12,12,12h66.54c6,0,12-6,12-12v-12c0-6-6-12-12-12" transform="translate(0 90.87)"/><text class="cls-3" transform="translate(512.68 43.45)">N<tspan class="cls-4" x="10.11" y="0">A</tspan><tspan x="18.67" y="0">TS Client</tspan></text></g><g id="edge2"><path class="cls-2" d="M467.19-51.62h35.74" transform="translate(0 90.87)"/></g><g id="node2-2" data-name="node2"><circle class="cls-2" cx="241.91" cy="85.18" r="36"/><text class="cls-3" transform="translate(211.21 89.38)">nats-server</text></g><g id="node2-3" data-name="node2"><circle class="cls-2" cx="167.16" cy="40.99" r="36"/><text class="cls-3" transform="translate(136.46 45.19)">nats-server</text></g><g id="edge1-2" data-name="edge1"><path class="cls-2" d="M167.38-13.19l-.43,17" transform="translate(0 90.87)"/></g><g id="edge2-2" data-name="edge2"><path class="cls-2" d="M197.16-29.61l12,9.17" transform="translate(0 90.87)"/></g><g id="edge2-3" data-name="edge2"><path class="cls-2" d="M196.19,18.48l13.95-5.78" transform="translate(0 90.87)"/></g><g id="node2-4" data-name="node2"><circle class="cls-2" cx="430.34" cy="129.12" r="36"/><text class="cls-3" transform="translate(399.64 133.32)">nats-server</text></g><g id="node2-5" data-name="node2"><circle class="cls-2" cx="357.02" cy="85.18" r="36"/><text class="cls-3" transform="translate(326.31 89.38)">nats-server</text></g><g id="node2-6" data-name="node2"><circle class="cls-2" cx="430.34" cy="39.25" r="36"/><text class="cls-3" transform="translate(399.64 43.45)">nats-server</text></g><g id="edge1-3" data-name="edge1"><path class="cls-2" d="M430.56-14.93l-.43,17" transform="translate(0 90.87)"/></g><g id="edge2-4" data-name="edge2"><path class="cls-2" d="M402.13-28.62l-13.28,7.18" transform="translate(0 90.87)"/></g><g id="edge2-5" data-name="edge2"><path class="cls-2" d="M389.19,9.05l12.6,8.33" transform="translate(0 90.87)"/></g><line class="cls-5" x1="200" y1="26.37" x2="205" y2="26.35"/><line class="cls-6" x1="214.74" y1="26.32" x2="385.13" y2="25.72"/><line class="cls-5" x1="390" y1="25.7" x2="395" y2="25.68"/><line class="cls-5" x1="200" y1="149.22" x2="205" y2="149.2"/><line class="cls-6" x1="214.74" y1="149.16" x2="385.13" y2="148.56"/><line class="cls-5" x1="390" y1="148.54" x2="395" y2="148.53"/><line class="cls-7" x1="277.91" y1="85.18" x2="321.02" y2="85.18"/></svg>